P3
4 6
255
 240   0  15 245   0  10 250   0   5 255   0   0
 240  15   0 245  10   0 250   5   0 255   0   0
   0 240  15   0 245  10   0 250   5   0 255   0
  15 240   0  10 245   0   5 250   0   0 255   0
   0  15 245   0  10 245   0   5 250   0   0 255
  15   0 245  10   0 245   5   0 250   0   0 255