P3
4 6
255
  15 255 240  10 255 245   5 255 250   0 255 255
  15 240 255  10 245 255   5 250 255   0 255 255
 255  15 240 255  10 245 255   5 250 255   0 255
 240  15 255 245  10 255 250   5 255 255   0 255
 255 240  10 255 245  10 255 250   5 255 255   0
 240 255  10 245 255  10 250 255   5 255 255   0
